<svg width="103" height="97" viewBox="0 0 103 97" fill="none" xmlns="http://www.w3.org/2000/svg">
<path d="M16.784 6.72L14.016 18H10.16L8.608 11.088L7.024 18H3.168L0.432 6.72H3.824L5.136 14.432L6.912 6.72H10.352L12.08 14.368L13.392 6.72H16.784ZM17.6028 13.504C17.6028 12.576 17.7681 11.7653 18.0988 11.072C18.4401 10.3787 18.8988 9.84533 19.4748 9.472C20.0614 9.09867 20.7121 8.912 21.4268 8.912C22.0454 8.912 22.5788 9.03467 23.0268 9.28C23.4748 9.52533 23.8214 9.856 24.0668 10.272V9.024H27.2028V18H24.0668V16.752C23.8214 17.168 23.4694 17.4987 23.0108 17.744C22.5628 17.9893 22.0348 18.112 21.4268 18.112C20.7121 18.112 20.0614 17.9253 19.4748 17.552C18.8988 17.1787 18.4401 16.6453 18.0988 15.952C17.7681 15.248 17.6028 14.432 17.6028 13.504ZM24.0668 13.504C24.0668 12.928 23.9068 12.4747 23.5868 12.144C23.2774 11.8133 22.8934 11.648 22.4348 11.648C21.9654 11.648 21.5761 11.8133 21.2668 12.144C20.9574 12.464 20.8028 12.9173 20.8028 13.504C20.8028 14.08 20.9574 14.5387 21.2668 14.88C21.5761 15.2107 21.9654 15.376 22.4348 15.376C22.8934 15.376 23.2774 15.2107 23.5868 14.88C23.9068 14.5493 24.0668 14.0907 24.0668 13.504ZM32.1258 10.608C32.4778 10.096 32.9044 9.69067 33.4058 9.392C33.9071 9.09333 34.4458 8.944 35.0218 8.944V12.288H34.1418C33.4591 12.288 32.9524 12.4213 32.6218 12.688C32.2911 12.9547 32.1258 13.4187 32.1258 14.08V18H28.9898V9.024H32.1258V10.608ZM47.874 8.944C49.0047 8.944 49.89 9.28533 50.53 9.968C51.1807 10.6507 51.506 11.584 51.506 12.768V18H48.37V13.184C48.37 12.704 48.2367 12.3307 47.97 12.064C47.7033 11.7973 47.3407 11.664 46.882 11.664C46.4233 11.664 46.0607 11.7973 45.794 12.064C45.5273 12.3307 45.394 12.704 45.394 13.184V18H42.258V13.184C42.258 12.704 42.1247 12.3307 41.858 12.064C41.602 11.7973 41.2447 11.664 40.786 11.664C40.3167 11.664 39.9487 11.7973 39.682 12.064C39.4153 12.3307 39.282 12.704 39.282 13.184V18H36.146V9.024H39.282V10.208C39.5593 9.824 39.9167 9.52 40.354 9.296C40.802 9.06133 41.314 8.944 41.89 8.944C42.5513 8.944 43.138 9.088 43.65 9.376C44.1727 9.664 44.5833 10.0693 44.882 10.592C45.202 10.1013 45.6233 9.70667 46.146 9.408C46.6687 9.09867 47.2447 8.944 47.874 8.944ZM60.4241 12.208C61.0855 12.3573 61.6081 12.688 61.9921 13.2C62.3868 13.7013 62.5841 14.2773 62.5841 14.928C62.5841 15.888 62.2535 16.64 61.5921 17.184C60.9308 17.728 60.0028 18 58.8081 18H53.2241V6.72H58.6321C59.7841 6.72 60.6855 6.976 61.3361 7.488C61.9975 8 62.3281 8.72 62.3281 9.648C62.3281 10.3093 62.1521 10.864 61.8001 11.312C61.4588 11.7493 61.0001 12.048 60.4241 12.208ZM56.3601 11.2H57.9441C58.7335 11.2 59.1281 10.8747 59.1281 10.224C59.1281 9.552 58.7335 9.216 57.9441 9.216H56.3601V11.2ZM58.1841 15.472C58.9735 15.472 59.3681 15.1413 59.3681 14.48C59.3681 14.1387 59.2615 13.8773 59.0481 13.696C58.8455 13.5147 58.5521 13.424 58.1681 13.424H56.3601V15.472H58.1841ZM68.1345 18.112C67.2385 18.112 66.4332 17.9253 65.7185 17.552C65.0145 17.1787 64.4598 16.6453 64.0545 15.952C63.6492 15.2587 63.4465 14.4427 63.4465 13.504C63.4465 12.576 63.6492 11.7653 64.0545 11.072C64.4705 10.3787 65.0305 9.84533 65.7345 9.472C66.4492 9.09867 67.2545 8.912 68.1505 8.912C69.0465 8.912 69.8465 9.09867 70.5505 9.472C71.2652 9.84533 71.8252 10.3787 72.2305 11.072C72.6465 11.7653 72.8545 12.576 72.8545 13.504C72.8545 14.432 72.6465 15.248 72.2305 15.952C71.8252 16.6453 71.2652 17.1787 70.5505 17.552C69.8358 17.9253 69.0305 18.112 68.1345 18.112ZM68.1345 15.392C68.5718 15.392 68.9345 15.232 69.2225 14.912C69.5212 14.5813 69.6705 14.112 69.6705 13.504C69.6705 12.896 69.5212 12.432 69.2225 12.112C68.9345 11.792 68.5772 11.632 68.1505 11.632C67.7238 11.632 67.3665 11.792 67.0785 12.112C66.7905 12.432 66.6465 12.896 66.6465 13.504C66.6465 14.1227 66.7852 14.592 67.0625 14.912C67.3398 15.232 67.6972 15.392 68.1345 15.392ZM78.3064 18.112C77.4104 18.112 76.605 17.9253 75.8904 17.552C75.1864 17.1787 74.6317 16.6453 74.2264 15.952C73.821 15.2587 73.6184 14.4427 73.6184 13.504C73.6184 12.576 73.821 11.7653 74.2264 11.072C74.6424 10.3787 75.2024 9.84533 75.9064 9.472C76.621 9.09867 77.4264 8.912 78.3224 8.912C79.2184 8.912 80.0184 9.09867 80.7224 9.472C81.437 9.84533 81.997 10.3787 82.4024 11.072C82.8184 11.7653 83.0264 12.576 83.0264 13.504C83.0264 14.432 82.8184 15.248 82.4024 15.952C81.997 16.6453 81.437 17.1787 80.7224 17.552C80.0077 17.9253 79.2024 18.112 78.3064 18.112ZM78.3064 15.392C78.7437 15.392 79.1064 15.232 79.3944 14.912C79.693 14.5813 79.8424 14.112 79.8424 13.504C79.8424 12.896 79.693 12.432 79.3944 12.112C79.1064 11.792 78.749 11.632 78.3224 11.632C77.8957 11.632 77.5384 11.792 77.2504 12.112C76.9624 12.432 76.8184 12.896 76.8184 13.504C76.8184 14.1227 76.957 14.592 77.2344 14.912C77.5117 15.232 77.869 15.392 78.3064 15.392ZM89.9183 18L87.4383 14.32V18H84.3023V6.16H87.4383V12.544L89.9183 9.024H93.6783L90.1423 13.536L93.7423 18H89.9183ZM98.4856 18.112C97.675 18.112 96.9496 17.9787 96.3096 17.712C95.6803 17.4347 95.179 17.0613 94.8056 16.592C94.443 16.112 94.2403 15.5733 94.1976 14.976H97.2376C97.2803 15.264 97.4136 15.488 97.6376 15.648C97.8616 15.808 98.139 15.888 98.4696 15.888C98.7256 15.888 98.9283 15.8347 99.0776 15.728C99.227 15.6213 99.3016 15.4827 99.3016 15.312C99.3016 15.088 99.179 14.9227 98.9336 14.816C98.6883 14.7093 98.283 14.592 97.7176 14.464C97.0776 14.336 96.5443 14.192 96.1176 14.032C95.691 13.872 95.3176 13.6107 94.9976 13.248C94.6883 12.8853 94.5336 12.3947 94.5336 11.776C94.5336 11.2427 94.6776 10.7627 94.9656 10.336C95.2536 9.89867 95.675 9.552 96.2296 9.296C96.795 9.04 97.4723 8.912 98.2616 8.912C99.435 8.912 100.358 9.2 101.03 9.776C101.702 10.352 102.091 11.1093 102.198 12.048H99.3656C99.3123 11.76 99.1843 11.5413 98.9816 11.392C98.7896 11.232 98.5283 11.152 98.1976 11.152C97.9416 11.152 97.7443 11.2 97.6056 11.296C97.4776 11.392 97.4136 11.5253 97.4136 11.696C97.4136 11.9093 97.5363 12.0747 97.7816 12.192C98.027 12.2987 98.4216 12.4107 98.9656 12.528C99.6163 12.6667 100.155 12.8213 100.582 12.992C101.019 13.1627 101.398 13.44 101.718 13.824C102.048 14.1973 102.214 14.7093 102.214 15.36C102.214 15.8827 102.059 16.352 101.75 16.768C101.451 17.184 101.019 17.5147 100.454 17.76C99.899 17.9947 99.243 18.112 98.4856 18.112Z" fill="#810EA7"/>
<path d="M21.167 29V65.4994L33.389 70.0933V66.468C29.951 65.9839 26.5042 65.1689 23.836 62.4286L25.8985 60.482C27.7547 62.388 30.3339 63.0796 33.2745 63.5477L29.2736 30.8102C26.622 30.3129 23.9014 29.7674 21.167 29ZM81.8379 29.0045C71.8803 31.6216 60.7008 29.0199 52.6242 39.6602V71.0809C55.6484 66.6946 59.5668 64.9316 63.4285 64.0793C68.6097 62.9353 73.5391 63.0015 77.4074 59.9224L79.2025 62.1087C74.4273 65.9102 68.7756 65.7782 64.0536 66.8207C59.5781 67.8087 55.8071 69.4735 53.0156 76.3287L81.8377 65.4995L81.8379 29.0045ZM32.0471 29.945L36.2342 64.2766L36.2433 64.3613V97L39.2897 91.0894L42.4167 96.8307V67.1923L38.1203 31.1819L32.0471 29.945ZM41.2854 33.594L45.1954 66.3644C45.8489 66.7177 46.4717 67.1235 47.0574 67.5777C48.0431 68.3447 48.9536 69.2871 49.7691 70.4322V39.0065C47.4017 36.377 44.5135 34.744 41.2854 33.594ZM15.5 33.7213V69.8068L33.3892 76.2817V73.2864L18.3551 67.8459V33.7213H15.5ZM84.6451 33.7258V67.8457L51.5024 79.837L45.2722 77.5844V83.3445C48.8181 84.5528 54.1451 84.3697 58.4491 82.9638V80.321L87.5 69.8067V33.7259L84.6451 33.7258ZM45.2719 69.7691V74.5561L49.483 76.1406C48.4075 73.0036 46.9523 71.0756 45.2911 69.7831C45.285 69.7785 45.2782 69.7739 45.2719 69.7691Z" fill="#810EA7"/>
<path d="M72.5037 47.3603C72.245 47.0203 71.93 46.7256 71.6376 46.4309C70.884 45.7509 70.0291 45.2635 69.3093 44.5495C67.6333 42.8948 67.2621 40.1634 68.3307 38.0667C67.2621 38.3273 66.3286 38.9167 65.53 39.5627C62.6167 41.9201 61.4695 46.0796 62.8417 49.6497C62.8867 49.763 62.9317 49.8763 62.9317 50.0237C62.9317 50.273 62.763 50.4997 62.538 50.5904C62.2793 50.7037 62.0094 50.6357 61.7956 50.4544C61.7314 50.4009 61.678 50.3354 61.6382 50.2617C60.3672 48.641 60.1647 46.3176 61.0195 44.4588C59.1411 46.0002 58.1176 48.607 58.2638 51.0664C58.3313 51.6331 58.3988 52.1997 58.59 52.7664C58.7475 53.4464 59.0511 54.1265 59.3886 54.7271C60.6034 56.6879 62.7067 58.0932 64.9676 58.3766C67.3746 58.6826 69.9504 58.2406 71.7951 56.5632C73.8534 54.6818 74.5733 51.6671 73.516 49.083L73.3698 48.7883C73.1336 48.267 72.5037 47.3603 72.5037 47.3603ZM68.9493 54.5005C68.6344 54.7725 68.117 55.0672 67.7121 55.1805C66.4523 55.6338 65.1925 54.9991 64.4502 54.2511C65.7887 53.9338 66.5873 52.9364 66.8235 51.9277C67.0147 51.021 66.6548 50.273 66.5085 49.4003C66.3736 48.5616 66.3961 47.8476 66.6997 47.0656C66.9135 47.4963 67.1384 47.9269 67.4084 48.267C68.2745 49.4003 69.6355 49.899 69.9279 51.4404C69.9729 51.5991 69.9954 51.7577 69.9954 51.9277C70.0291 52.8571 69.6242 53.8771 68.9493 54.5005Z" fill="white"/>
</svg>
