<svg width="59" height="59" viewBox="0 0 59 59" fill="none" xmlns="http://www.w3.org/2000/svg">
<circle cx="29.5" cy="29.5" r="29.5" fill="#F9E7FF"/>
<path d="M25.9524 15.0091C25.7875 15.0339 25.6301 15.0954 25.4912 15.189C25.4912 15.189 24.054 16.1072 22.5089 17.1003C20.9638 18.0924 19.2448 19.1859 18.8517 19.4073C18.8275 19.418 18.8036 19.4296 18.7802 19.4419C17.3532 20.3359 17.0567 21.7962 17.0056 22.6152C17.0021 22.6533 17.0056 22.6844 17.0056 22.7248C16.9931 23.0316 17.0056 23.2289 17.0056 23.2289V38.297C17.0056 40.4864 19.5198 41.5395 21.9056 41.5395C22.7009 41.5395 23.4962 41.4092 24.1778 41.1785C24.6323 40.9478 24.9583 40.4864 24.9583 40.025V27.9132C24.9583 25.2602 25.5264 24.0144 27.2306 22.9763C27.685 22.7456 32.4498 19.4062 32.4498 19.4062C32.6771 19.1755 32.9111 18.7072 32.9111 18.3611V18.2527C32.9111 17.7913 32.6839 17.4383 32.3431 17.2076C32.0022 16.9769 31.5478 16.9769 31.2069 17.2076C31.0933 17.323 24.1631 22.0604 22.6861 22.8678C21.2092 23.7906 19.8311 24.0133 19.4902 23.5519C19.3846 23.4446 19.2925 23.1158 19.2778 22.7952V22.7225C19.2789 22.4087 19.3584 21.8182 19.9878 21.4248C20.6263 21.0638 22.2112 20.036 23.7518 19.0463C24.4028 18.6276 24.4834 18.5826 24.9936 18.2527C25.0607 18.5345 25.2299 18.7803 25.4675 18.9411C25.7051 19.102 25.9936 19.1661 26.2756 19.1207C26.5576 19.0753 26.8125 18.9238 26.9895 18.6963C27.1664 18.4687 27.2525 18.1819 27.2306 17.8928V16.1625C27.2318 15.9981 27.1985 15.8353 27.1327 15.6851C27.0669 15.5348 26.9703 15.4006 26.8493 15.2914C26.7282 15.1821 26.5856 15.1004 26.4309 15.0517C26.2762 15.003 26.1131 14.9885 25.9524 15.0091ZM35.0413 19.0463C34.8607 19.0768 34.6899 19.1512 34.5437 19.2632C34.5437 19.2632 28.8245 23.1701 27.8338 23.8402C27.8218 23.8523 27.8101 23.8646 27.7986 23.8771C26.9761 24.5035 26.4887 25.2487 26.2717 25.9304C26.1501 26.315 26.0902 26.7169 26.0944 27.1208V27.4818C26.0928 27.5176 26.0928 27.5534 26.0944 27.5891V41.5395C26.0944 43.7312 28.5803 45 30.8525 45C31.875 45 32.7975 44.7762 33.4792 44.3148C34.8425 43.5074 41.4319 38.2959 41.4319 38.2959C41.7728 38.0652 42 37.7399 42 37.3938V22.3984C42 21.8216 41.7796 21.4756 41.3251 21.2449C40.9843 21.0142 40.4242 21.1226 40.0834 21.3533C38.2656 22.7375 33.3724 26.6455 32.2363 27.3376C30.6457 28.2604 29.1472 28.4911 28.5791 27.9144C28.3519 27.6837 28.3667 27.4668 28.3667 27.1208C28.3735 26.9224 28.3951 26.7517 28.4382 26.6155C28.5019 26.4148 28.6314 26.168 29.112 25.7873C29.1347 25.7689 29.1233 25.77 29.1472 25.7516C29.9686 25.1944 32.4805 23.4561 34.1188 22.3257C34.2116 22.5785 34.3888 22.7903 34.6195 22.9242C34.8502 23.0581 35.1198 23.1057 35.3815 23.0586C35.6431 23.0116 35.8803 22.8729 36.0516 22.6667C36.223 22.4605 36.3178 22.1998 36.3194 21.93V20.1998C36.3207 20.0354 36.2874 19.8726 36.2216 19.7223C36.1558 19.5721 36.0592 19.4378 35.9382 19.3286C35.8171 19.2194 35.6745 19.1377 35.5198 19.089C35.3651 19.0403 35.202 19.0257 35.0413 19.0463ZM39.7278 27.4818V29.7888L34.0472 34.2575V31.9505L39.7278 27.4818Z" fill="#810EA7"/>
</svg>
