<svg width="108" height="98" viewBox="0 0 108 98" fill="none" xmlns="http://www.w3.org/2000/svg">
<mask id="path-1-outside-1_186_1833" maskUnits="userSpaceOnUse" x="0" y="4.04822" width="108" height="17" fill="black">
<rect fill="white" y="4.04822" width="108" height="17"/>
<path d="M19.784 6.76822L17.016 18.0482H13.16L11.608 11.1362L10.024 18.0482H6.168L3.432 6.76822H6.824L8.136 14.4802L9.912 6.76822H13.352L15.08 14.4162L16.392 6.76822H19.784ZM20.6028 13.5522C20.6028 12.6242 20.7681 11.8136 21.0988 11.1202C21.4401 10.4269 21.8988 9.89355 22.4748 9.52022C23.0614 9.14688 23.7121 8.96022 24.4268 8.96022C25.0454 8.96022 25.5788 9.08288 26.0268 9.32822C26.4748 9.57355 26.8214 9.90422 27.0668 10.3202V9.07222H30.2028V18.0482H27.0668V16.8002C26.8214 17.2162 26.4694 17.5469 26.0108 17.7922C25.5628 18.0376 25.0348 18.1602 24.4268 18.1602C23.7121 18.1602 23.0614 17.9736 22.4748 17.6002C21.8988 17.2269 21.4401 16.6936 21.0988 16.0002C20.7681 15.2962 20.6028 14.4802 20.6028 13.5522ZM27.0668 13.5522C27.0668 12.9762 26.9068 12.5229 26.5868 12.1922C26.2774 11.8616 25.8934 11.6962 25.4348 11.6962C24.9654 11.6962 24.5761 11.8616 24.2668 12.1922C23.9574 12.5122 23.8028 12.9656 23.8028 13.5522C23.8028 14.1282 23.9574 14.5869 24.2668 14.9282C24.5761 15.2589 24.9654 15.4242 25.4348 15.4242C25.8934 15.4242 26.2774 15.2589 26.5868 14.9282C26.9068 14.5976 27.0668 14.1389 27.0668 13.5522ZM35.1258 10.6562C35.4778 10.1442 35.9044 9.73888 36.4058 9.44022C36.9071 9.14155 37.4458 8.99222 38.0218 8.99222V12.3362H37.1418C36.4591 12.3362 35.9524 12.4696 35.6218 12.7362C35.2911 13.0029 35.1258 13.4669 35.1258 14.1282V18.0482H31.9898V9.07222H35.1258V10.6562ZM50.874 8.99222C52.0047 8.99222 52.89 9.33355 53.53 10.0162C54.1807 10.6989 54.506 11.6322 54.506 12.8162V18.0482H51.37V13.2322C51.37 12.7522 51.2367 12.3789 50.97 12.1122C50.7033 11.8456 50.3407 11.7122 49.882 11.7122C49.4233 11.7122 49.0607 11.8456 48.794 12.1122C48.5273 12.3789 48.394 12.7522 48.394 13.2322V18.0482H45.258V13.2322C45.258 12.7522 45.1247 12.3789 44.858 12.1122C44.602 11.8456 44.2447 11.7122 43.786 11.7122C43.3167 11.7122 42.9487 11.8456 42.682 12.1122C42.4153 12.3789 42.282 12.7522 42.282 13.2322V18.0482H39.146V9.07222H42.282V10.2562C42.5593 9.87222 42.9167 9.56822 43.354 9.34422C43.802 9.10955 44.314 8.99222 44.89 8.99222C45.5513 8.99222 46.138 9.13622 46.65 9.42422C47.1727 9.71222 47.5833 10.1176 47.882 10.6402C48.202 10.1496 48.6233 9.75488 49.146 9.45622C49.6687 9.14688 50.2447 8.99222 50.874 8.99222ZM63.4241 12.2562C64.0855 12.4056 64.6081 12.7362 64.9921 13.2482C65.3868 13.7496 65.5841 14.3256 65.5841 14.9762C65.5841 15.9362 65.2535 16.6882 64.5921 17.2322C63.9308 17.7762 63.0028 18.0482 61.8081 18.0482H56.2241V6.76822H61.6321C62.7841 6.76822 63.6855 7.02422 64.3361 7.53622C64.9975 8.04822 65.3281 8.76822 65.3281 9.69622C65.3281 10.3576 65.1521 10.9122 64.8001 11.3602C64.4588 11.7976 64.0001 12.0962 63.4241 12.2562ZM59.3601 11.2482H60.9441C61.7335 11.2482 62.1281 10.9229 62.1281 10.2722C62.1281 9.60022 61.7335 9.26422 60.9441 9.26422H59.3601V11.2482ZM61.1841 15.5202C61.9735 15.5202 62.3681 15.1896 62.3681 14.5282C62.3681 14.1869 62.2615 13.9256 62.0481 13.7442C61.8455 13.5629 61.5521 13.4722 61.1681 13.4722H59.3601V15.5202H61.1841ZM71.1345 18.1602C70.2385 18.1602 69.4332 17.9736 68.7185 17.6002C68.0145 17.2269 67.4598 16.6936 67.0545 16.0002C66.6492 15.3069 66.4465 14.4909 66.4465 13.5522C66.4465 12.6242 66.6492 11.8136 67.0545 11.1202C67.4705 10.4269 68.0305 9.89355 68.7345 9.52022C69.4492 9.14688 70.2545 8.96022 71.1505 8.96022C72.0465 8.96022 72.8465 9.14688 73.5505 9.52022C74.2652 9.89355 74.8252 10.4269 75.2305 11.1202C75.6465 11.8136 75.8545 12.6242 75.8545 13.5522C75.8545 14.4802 75.6465 15.2962 75.2305 16.0002C74.8252 16.6936 74.2652 17.2269 73.5505 17.6002C72.8358 17.9736 72.0305 18.1602 71.1345 18.1602ZM71.1345 15.4402C71.5718 15.4402 71.9345 15.2802 72.2225 14.9602C72.5212 14.6296 72.6705 14.1602 72.6705 13.5522C72.6705 12.9442 72.5212 12.4802 72.2225 12.1602C71.9345 11.8402 71.5772 11.6802 71.1505 11.6802C70.7238 11.6802 70.3665 11.8402 70.0785 12.1602C69.7905 12.4802 69.6465 12.9442 69.6465 13.5522C69.6465 14.1709 69.7852 14.6402 70.0625 14.9602C70.3398 15.2802 70.6972 15.4402 71.1345 15.4402ZM81.3064 18.1602C80.4104 18.1602 79.605 17.9736 78.8904 17.6002C78.1864 17.2269 77.6317 16.6936 77.2264 16.0002C76.821 15.3069 76.6184 14.4909 76.6184 13.5522C76.6184 12.6242 76.821 11.8136 77.2264 11.1202C77.6424 10.4269 78.2024 9.89355 78.9064 9.52022C79.621 9.14688 80.4264 8.96022 81.3224 8.96022C82.2184 8.96022 83.0184 9.14688 83.7224 9.52022C84.437 9.89355 84.997 10.4269 85.4024 11.1202C85.8184 11.8136 86.0264 12.6242 86.0264 13.5522C86.0264 14.4802 85.8184 15.2962 85.4024 16.0002C84.997 16.6936 84.437 17.2269 83.7224 17.6002C83.0077 17.9736 82.2024 18.1602 81.3064 18.1602ZM81.3064 15.4402C81.7437 15.4402 82.1064 15.2802 82.3944 14.9602C82.693 14.6296 82.8424 14.1602 82.8424 13.5522C82.8424 12.9442 82.693 12.4802 82.3944 12.1602C82.1064 11.8402 81.749 11.6802 81.3224 11.6802C80.8957 11.6802 80.5384 11.8402 80.2504 12.1602C79.9624 12.4802 79.8184 12.9442 79.8184 13.5522C79.8184 14.1709 79.957 14.6402 80.2344 14.9602C80.5117 15.2802 80.869 15.4402 81.3064 15.4402ZM92.9183 18.0482L90.4383 14.3682V18.0482H87.3023V6.20822H90.4383V12.5922L92.9183 9.07222H96.6783L93.1423 13.5842L96.7423 18.0482H92.9183ZM101.486 18.1602C100.675 18.1602 99.9496 18.0269 99.3096 17.7602C98.6803 17.4829 98.179 17.1096 97.8056 16.6402C97.443 16.1602 97.2403 15.6216 97.1976 15.0242H100.238C100.28 15.3122 100.414 15.5362 100.638 15.6962C100.862 15.8562 101.139 15.9362 101.47 15.9362C101.726 15.9362 101.928 15.8829 102.078 15.7762C102.227 15.6696 102.302 15.5309 102.302 15.3602C102.302 15.1362 102.179 14.9709 101.934 14.8642C101.688 14.7576 101.283 14.6402 100.718 14.5122C100.078 14.3842 99.5443 14.2402 99.1176 14.0802C98.691 13.9202 98.3176 13.6589 97.9976 13.2962C97.6883 12.9336 97.5336 12.4429 97.5336 11.8242C97.5336 11.2909 97.6776 10.8109 97.9656 10.3842C98.2536 9.94688 98.675 9.60022 99.2296 9.34422C99.795 9.08822 100.472 8.96022 101.262 8.96022C102.435 8.96022 103.358 9.24822 104.03 9.82422C104.702 10.4002 105.091 11.1576 105.198 12.0962H102.366C102.312 11.8082 102.184 11.5896 101.982 11.4402C101.79 11.2802 101.528 11.2002 101.198 11.2002C100.942 11.2002 100.744 11.2482 100.606 11.3442C100.478 11.4402 100.414 11.5736 100.414 11.7442C100.414 11.9576 100.536 12.1229 100.782 12.2402C101.027 12.3469 101.422 12.4589 101.966 12.5762C102.616 12.7149 103.155 12.8696 103.582 13.0402C104.019 13.2109 104.398 13.4882 104.718 13.8722C105.048 14.2456 105.214 14.7576 105.214 15.4082C105.214 15.9309 105.059 16.4002 104.75 16.8162C104.451 17.2322 104.019 17.5629 103.454 17.8082C102.899 18.0429 102.243 18.1602 101.486 18.1602Z"/>
</mask>
<path d="M19.784 6.76822L17.016 18.0482H13.16L11.608 11.1362L10.024 18.0482H6.168L3.432 6.76822H6.824L8.136 14.4802L9.912 6.76822H13.352L15.08 14.4162L16.392 6.76822H19.784ZM20.6028 13.5522C20.6028 12.6242 20.7681 11.8136 21.0988 11.1202C21.4401 10.4269 21.8988 9.89355 22.4748 9.52022C23.0614 9.14688 23.7121 8.96022 24.4268 8.96022C25.0454 8.96022 25.5788 9.08288 26.0268 9.32822C26.4748 9.57355 26.8214 9.90422 27.0668 10.3202V9.07222H30.2028V18.0482H27.0668V16.8002C26.8214 17.2162 26.4694 17.5469 26.0108 17.7922C25.5628 18.0376 25.0348 18.1602 24.4268 18.1602C23.7121 18.1602 23.0614 17.9736 22.4748 17.6002C21.8988 17.2269 21.4401 16.6936 21.0988 16.0002C20.7681 15.2962 20.6028 14.4802 20.6028 13.5522ZM27.0668 13.5522C27.0668 12.9762 26.9068 12.5229 26.5868 12.1922C26.2774 11.8616 25.8934 11.6962 25.4348 11.6962C24.9654 11.6962 24.5761 11.8616 24.2668 12.1922C23.9574 12.5122 23.8028 12.9656 23.8028 13.5522C23.8028 14.1282 23.9574 14.5869 24.2668 14.9282C24.5761 15.2589 24.9654 15.4242 25.4348 15.4242C25.8934 15.4242 26.2774 15.2589 26.5868 14.9282C26.9068 14.5976 27.0668 14.1389 27.0668 13.5522ZM35.1258 10.6562C35.4778 10.1442 35.9044 9.73888 36.4058 9.44022C36.9071 9.14155 37.4458 8.99222 38.0218 8.99222V12.3362H37.1418C36.4591 12.3362 35.9524 12.4696 35.6218 12.7362C35.2911 13.0029 35.1258 13.4669 35.1258 14.1282V18.0482H31.9898V9.07222H35.1258V10.6562ZM50.874 8.99222C52.0047 8.99222 52.89 9.33355 53.53 10.0162C54.1807 10.6989 54.506 11.6322 54.506 12.8162V18.0482H51.37V13.2322C51.37 12.7522 51.2367 12.3789 50.97 12.1122C50.7033 11.8456 50.3407 11.7122 49.882 11.7122C49.4233 11.7122 49.0607 11.8456 48.794 12.1122C48.5273 12.3789 48.394 12.7522 48.394 13.2322V18.0482H45.258V13.2322C45.258 12.7522 45.1247 12.3789 44.858 12.1122C44.602 11.8456 44.2447 11.7122 43.786 11.7122C43.3167 11.7122 42.9487 11.8456 42.682 12.1122C42.4153 12.3789 42.282 12.7522 42.282 13.2322V18.0482H39.146V9.07222H42.282V10.2562C42.5593 9.87222 42.9167 9.56822 43.354 9.34422C43.802 9.10955 44.314 8.99222 44.89 8.99222C45.5513 8.99222 46.138 9.13622 46.65 9.42422C47.1727 9.71222 47.5833 10.1176 47.882 10.6402C48.202 10.1496 48.6233 9.75488 49.146 9.45622C49.6687 9.14688 50.2447 8.99222 50.874 8.99222ZM63.4241 12.2562C64.0855 12.4056 64.6081 12.7362 64.9921 13.2482C65.3868 13.7496 65.5841 14.3256 65.5841 14.9762C65.5841 15.9362 65.2535 16.6882 64.5921 17.2322C63.9308 17.7762 63.0028 18.0482 61.8081 18.0482H56.2241V6.76822H61.6321C62.7841 6.76822 63.6855 7.02422 64.3361 7.53622C64.9975 8.04822 65.3281 8.76822 65.3281 9.69622C65.3281 10.3576 65.1521 10.9122 64.8001 11.3602C64.4588 11.7976 64.0001 12.0962 63.4241 12.2562ZM59.3601 11.2482H60.9441C61.7335 11.2482 62.1281 10.9229 62.1281 10.2722C62.1281 9.60022 61.7335 9.26422 60.9441 9.26422H59.3601V11.2482ZM61.1841 15.5202C61.9735 15.5202 62.3681 15.1896 62.3681 14.5282C62.3681 14.1869 62.2615 13.9256 62.0481 13.7442C61.8455 13.5629 61.5521 13.4722 61.1681 13.4722H59.3601V15.5202H61.1841ZM71.1345 18.1602C70.2385 18.1602 69.4332 17.9736 68.7185 17.6002C68.0145 17.2269 67.4598 16.6936 67.0545 16.0002C66.6492 15.3069 66.4465 14.4909 66.4465 13.5522C66.4465 12.6242 66.6492 11.8136 67.0545 11.1202C67.4705 10.4269 68.0305 9.89355 68.7345 9.52022C69.4492 9.14688 70.2545 8.96022 71.1505 8.96022C72.0465 8.96022 72.8465 9.14688 73.5505 9.52022C74.2652 9.89355 74.8252 10.4269 75.2305 11.1202C75.6465 11.8136 75.8545 12.6242 75.8545 13.5522C75.8545 14.4802 75.6465 15.2962 75.2305 16.0002C74.8252 16.6936 74.2652 17.2269 73.5505 17.6002C72.8358 17.9736 72.0305 18.1602 71.1345 18.1602ZM71.1345 15.4402C71.5718 15.4402 71.9345 15.2802 72.2225 14.9602C72.5212 14.6296 72.6705 14.1602 72.6705 13.5522C72.6705 12.9442 72.5212 12.4802 72.2225 12.1602C71.9345 11.8402 71.5772 11.6802 71.1505 11.6802C70.7238 11.6802 70.3665 11.8402 70.0785 12.1602C69.7905 12.4802 69.6465 12.9442 69.6465 13.5522C69.6465 14.1709 69.7852 14.6402 70.0625 14.9602C70.3398 15.2802 70.6972 15.4402 71.1345 15.4402ZM81.3064 18.1602C80.4104 18.1602 79.605 17.9736 78.8904 17.6002C78.1864 17.2269 77.6317 16.6936 77.2264 16.0002C76.821 15.3069 76.6184 14.4909 76.6184 13.5522C76.6184 12.6242 76.821 11.8136 77.2264 11.1202C77.6424 10.4269 78.2024 9.89355 78.9064 9.52022C79.621 9.14688 80.4264 8.96022 81.3224 8.96022C82.2184 8.96022 83.0184 9.14688 83.7224 9.52022C84.437 9.89355 84.997 10.4269 85.4024 11.1202C85.8184 11.8136 86.0264 12.6242 86.0264 13.5522C86.0264 14.4802 85.8184 15.2962 85.4024 16.0002C84.997 16.6936 84.437 17.2269 83.7224 17.6002C83.0077 17.9736 82.2024 18.1602 81.3064 18.1602ZM81.3064 15.4402C81.7437 15.4402 82.1064 15.2802 82.3944 14.9602C82.693 14.6296 82.8424 14.1602 82.8424 13.5522C82.8424 12.9442 82.693 12.4802 82.3944 12.1602C82.1064 11.8402 81.749 11.6802 81.3224 11.6802C80.8957 11.6802 80.5384 11.8402 80.2504 12.1602C79.9624 12.4802 79.8184 12.9442 79.8184 13.5522C79.8184 14.1709 79.957 14.6402 80.2344 14.9602C80.5117 15.2802 80.869 15.4402 81.3064 15.4402ZM92.9183 18.0482L90.4383 14.3682V18.0482H87.3023V6.20822H90.4383V12.5922L92.9183 9.07222H96.6783L93.1423 13.5842L96.7423 18.0482H92.9183ZM101.486 18.1602C100.675 18.1602 99.9496 18.0269 99.3096 17.7602C98.6803 17.4829 98.179 17.1096 97.8056 16.6402C97.443 16.1602 97.2403 15.6216 97.1976 15.0242H100.238C100.28 15.3122 100.414 15.5362 100.638 15.6962C100.862 15.8562 101.139 15.9362 101.47 15.9362C101.726 15.9362 101.928 15.8829 102.078 15.7762C102.227 15.6696 102.302 15.5309 102.302 15.3602C102.302 15.1362 102.179 14.9709 101.934 14.8642C101.688 14.7576 101.283 14.6402 100.718 14.5122C100.078 14.3842 99.5443 14.2402 99.1176 14.0802C98.691 13.9202 98.3176 13.6589 97.9976 13.2962C97.6883 12.9336 97.5336 12.4429 97.5336 11.8242C97.5336 11.2909 97.6776 10.8109 97.9656 10.3842C98.2536 9.94688 98.675 9.60022 99.2296 9.34422C99.795 9.08822 100.472 8.96022 101.262 8.96022C102.435 8.96022 103.358 9.24822 104.03 9.82422C104.702 10.4002 105.091 11.1576 105.198 12.0962H102.366C102.312 11.8082 102.184 11.5896 101.982 11.4402C101.79 11.2802 101.528 11.2002 101.198 11.2002C100.942 11.2002 100.744 11.2482 100.606 11.3442C100.478 11.4402 100.414 11.5736 100.414 11.7442C100.414 11.9576 100.536 12.1229 100.782 12.2402C101.027 12.3469 101.422 12.4589 101.966 12.5762C102.616 12.7149 103.155 12.8696 103.582 13.0402C104.019 13.2109 104.398 13.4882 104.718 13.8722C105.048 14.2456 105.214 14.7576 105.214 15.4082C105.214 15.9309 105.059 16.4002 104.75 16.8162C104.451 17.2322 104.019 17.5629 103.454 17.8082C102.899 18.0429 102.243 18.1602 101.486 18.1602Z" fill="#810EA7"/>
<path d="M19.784 6.76822L21.7264 7.24486L22.3341 4.76822H19.784V6.76822ZM17.016 18.0482V20.0482H18.5846L18.9584 18.5249L17.016 18.0482ZM13.16 18.0482L11.2086 18.4864L11.5593 20.0482H13.16V18.0482ZM11.608 11.1362L13.5594 10.6981L9.65854 10.6895L11.608 11.1362ZM10.024 18.0482V20.0482H11.6175L11.9735 18.495L10.024 18.0482ZM6.168 18.0482L4.22436 18.5197L4.59512 20.0482H6.168V18.0482ZM3.432 6.76822V4.76822H0.888902L1.48836 7.23965L3.432 6.76822ZM6.824 6.76822L8.79567 6.43279L8.51249 4.76822H6.824V6.76822ZM8.136 14.4802L6.16433 14.8156L10.085 14.9291L8.136 14.4802ZM9.912 6.76822V4.76822H8.32023L7.96301 6.31938L9.912 6.76822ZM13.352 6.76822L15.3028 6.32744L14.9505 4.76822H13.352V6.76822ZM15.08 14.4162L13.1292 14.857L17.0512 14.7544L15.08 14.4162ZM16.392 6.76822V4.76822H14.7059L14.4208 6.43006L16.392 6.76822ZM17.8416 6.29158L15.0736 17.5716L18.9584 18.5249L21.7264 7.24486L17.8416 6.29158ZM17.016 16.0482H13.16V20.0482H17.016V16.0482ZM15.1114 17.6101L13.5594 10.6981L9.65659 11.5744L11.2086 18.4864L15.1114 17.6101ZM9.65854 10.6895L8.07454 17.6015L11.9735 18.495L13.5575 11.583L9.65854 10.6895ZM10.024 16.0482H6.168V20.0482H10.024V16.0482ZM8.11164 17.5768L5.37564 6.29678L1.48836 7.23965L4.22436 18.5197L8.11164 17.5768ZM3.432 8.76822H6.824V4.76822H3.432V8.76822ZM4.85233 7.10365L6.16433 14.8156L10.1077 14.1448L8.79567 6.43279L4.85233 7.10365ZM10.085 14.9291L11.861 7.21705L7.96301 6.31938L6.18701 14.0314L10.085 14.9291ZM9.912 8.76822H13.352V4.76822H9.912V8.76822ZM11.4012 7.20899L13.1292 14.857L17.0308 13.9754L15.3028 6.32744L11.4012 7.20899ZM17.0512 14.7544L18.3632 7.10637L14.4208 6.43006L13.1088 14.0781L17.0512 14.7544ZM16.392 8.76822H19.784V4.76822H16.392V8.76822ZM21.0987 11.1202L19.3044 10.2368L19.2989 10.248L19.2935 10.2593L21.0987 11.1202ZM22.4748 9.52022L21.401 7.83289L21.394 7.83737L21.387 7.84191L22.4748 9.52022ZM26.0268 9.32822L25.0661 11.0824H25.0661L26.0268 9.32822ZM27.0667 10.3202L25.344 11.3362L29.0667 17.6486V10.3202H27.0667ZM27.0667 9.07222V7.07222H25.0667V9.07222H27.0667ZM30.2028 9.07222H32.2028V7.07222H30.2028V9.07222ZM30.2028 18.0482V20.0482H32.2028V18.0482H30.2028ZM27.0667 18.0482H25.0667V20.0482H27.0667V18.0482ZM27.0667 16.8002H29.0667V9.47179L25.344 15.7842L27.0667 16.8002ZM26.0107 17.7922L25.0674 16.0286L25.0588 16.0333L25.0501 16.038L26.0107 17.7922ZM22.4748 17.6002L21.387 19.2785L21.394 19.2831L21.401 19.2875L22.4748 17.6002ZM21.0987 16.0002L19.2885 16.8505L19.2963 16.8671L19.3044 16.8836L21.0987 16.0002ZM26.5868 12.1922L25.1262 13.5585L25.1378 13.5709L25.1495 13.5831L26.5868 12.1922ZM24.2668 12.1922L25.7047 13.5823L25.7161 13.5705L25.7273 13.5585L24.2668 12.1922ZM24.2668 14.9282L22.7848 16.2713L22.7954 16.283L22.8062 16.2945L24.2668 14.9282ZM26.5868 14.9282L25.1495 13.5374L25.1378 13.5495L25.1262 13.5619L26.5868 14.9282ZM22.6028 13.5522C22.6028 12.8611 22.7254 12.3555 22.904 11.9812L19.2935 10.2593C18.8107 11.2716 18.6027 12.3873 18.6027 13.5522H22.6028ZM22.8931 12.0036C23.0955 11.5924 23.3263 11.3517 23.5625 11.1985L21.387 7.84191C20.4712 8.43544 19.7847 9.26135 19.3044 10.2368L22.8931 12.0036ZM23.5485 11.2075C23.805 11.0443 24.0813 10.9602 24.4268 10.9602V6.96022C23.3429 6.96022 22.3178 7.24945 21.401 7.83289L23.5485 11.2075ZM24.4268 10.9602C24.7801 10.9602 24.9688 11.0291 25.0661 11.0824L26.9874 7.57403C26.1887 7.13665 25.3107 6.96022 24.4268 6.96022V10.9602ZM25.0661 11.0824C25.2172 11.1651 25.2923 11.2485 25.344 11.3362L28.7895 9.30425C28.3505 8.55996 27.7323 7.98196 26.9874 7.57402L25.0661 11.0824ZM29.0667 10.3202V9.07222H25.0667V10.3202H29.0667ZM27.0667 11.0722H30.2028V7.07222H27.0667V11.0722ZM28.2028 9.07222V18.0482H32.2028V9.07222H28.2028ZM30.2028 16.0482H27.0667V20.0482H30.2028V16.0482ZM29.0667 18.0482V16.8002H25.0667V18.0482H29.0667ZM25.344 15.7842C25.2994 15.8599 25.2285 15.9425 25.0674 16.0286L26.9541 19.5558C27.7103 19.1513 28.3435 18.5725 28.7895 17.8162L25.344 15.7842ZM25.0501 16.038C24.948 16.094 24.7628 16.1602 24.4268 16.1602V20.1602C25.3067 20.1602 26.1775 19.9811 26.9714 19.5464L25.0501 16.038ZM24.4268 16.1602C24.0813 16.1602 23.805 16.0761 23.5485 15.9129L21.401 19.2875C22.3178 19.871 23.3429 20.1602 24.4268 20.1602V16.1602ZM23.5625 15.9219C23.3263 15.7688 23.0955 15.528 22.8931 15.1168L19.3044 16.8836C19.7847 17.8591 20.4712 18.685 21.387 19.2785L23.5625 15.9219ZM22.909 15.1499C22.7251 14.7584 22.6028 14.2423 22.6028 13.5522H18.6027C18.6027 14.7181 18.8111 15.834 19.2885 16.8505L22.909 15.1499ZM29.0667 13.5522C29.0667 12.5944 28.7903 11.5933 28.024 10.8014L25.1495 13.5831C25.1277 13.5605 25.1077 13.5347 25.091 13.5075C25.0746 13.4806 25.0653 13.4587 25.0608 13.4459C25.052 13.4211 25.0667 13.4473 25.0667 13.5522H29.0667ZM28.0473 10.8259C27.3543 10.0851 26.4388 9.69622 25.4347 9.69622V13.6962C25.4187 13.6962 25.357 13.6921 25.2758 13.6572C25.1941 13.622 25.1441 13.5777 25.1262 13.5585L28.0473 10.8259ZM25.4347 9.69622C24.4347 9.69622 23.509 10.0746 22.8062 10.8259L25.7273 13.5585C25.7049 13.5824 25.6525 13.6271 25.5725 13.6611C25.4941 13.6944 25.4392 13.6962 25.4347 13.6962V9.69622ZM22.8288 10.8022C22.0558 11.6018 21.8027 12.6171 21.8027 13.5522H25.8027C25.8027 13.431 25.8191 13.3961 25.8116 13.418C25.8075 13.4301 25.7977 13.4545 25.7787 13.4862C25.7595 13.5183 25.7346 13.5514 25.7047 13.5823L22.8288 10.8022ZM21.8027 13.5522C21.8027 14.4953 22.0643 15.4763 22.7848 16.2713L25.7487 13.5852C25.7662 13.6044 25.7816 13.6256 25.7938 13.6468C25.8059 13.6677 25.8118 13.6831 25.8139 13.6892C25.8178 13.7006 25.8027 13.663 25.8027 13.5522H21.8027ZM22.8062 16.2945C23.509 17.0458 24.4347 17.4242 25.4347 17.4242V13.4242C25.4392 13.4242 25.4941 13.426 25.5725 13.4593C25.6525 13.4933 25.7049 13.538 25.7273 13.5619L22.8062 16.2945ZM25.4347 17.4242C26.4388 17.4242 27.3543 17.0354 28.0473 16.2945L25.1262 13.5619C25.1441 13.5428 25.1941 13.4984 25.2758 13.4633C25.357 13.4283 25.4187 13.4242 25.4347 13.4242V17.4242ZM28.024 16.3191C28.7968 15.5205 29.0667 14.509 29.0667 13.5522H25.0667C25.0667 13.6664 25.0509 13.6987 25.0583 13.6775C25.0623 13.6662 25.0712 13.6446 25.0879 13.6171C25.1048 13.5893 25.1258 13.5619 25.1495 13.5374L28.024 16.3191ZM35.1258 10.6562H33.1257V17.0956L36.7738 11.7893L35.1258 10.6562ZM38.0218 8.99222H40.0218V6.99222H38.0218V8.99222ZM38.0218 12.3362V14.3362H40.0218V12.3362H38.0218ZM35.6217 12.7362L36.8773 14.293V14.293L35.6217 12.7362ZM35.1258 18.0482V20.0482H37.1258V18.0482H35.1258ZM31.9897 18.0482H29.9897V20.0482H31.9897V18.0482ZM31.9897 9.07222V7.07222H29.9897V9.07222H31.9897ZM35.1258 9.07222H37.1258V7.07222H35.1258V9.07222ZM36.7738 11.7893C36.9731 11.4994 37.1918 11.2999 37.4294 11.1584L35.3821 7.72201C34.617 8.17783 33.9824 8.78903 33.4777 9.52316L36.7738 11.7893ZM37.4294 11.1584C37.6254 11.0416 37.8111 10.9922 38.0218 10.9922V6.99222C37.0804 6.99222 36.1888 7.24146 35.3821 7.72201L37.4294 11.1584ZM36.0218 8.99222V12.3362H40.0218V8.99222H36.0218ZM38.0218 10.3362H37.1418V14.3362H38.0218V10.3362ZM37.1418 10.3362C36.2608 10.3362 35.2119 10.4974 34.3662 11.1794L36.8773 14.293C36.7782 14.3729 36.7161 14.3816 36.7587 14.3704C36.8046 14.3583 36.9234 14.3362 37.1418 14.3362V10.3362ZM34.3662 11.1794C33.3523 11.9971 33.1257 13.2015 33.1257 14.1282H37.1258C37.1258 13.9529 37.1491 13.9123 37.1337 13.9555C37.1246 13.9811 37.103 14.0324 37.0595 14.0965C37.015 14.1621 36.9543 14.2309 36.8773 14.293L34.3662 11.1794ZM33.1257 14.1282V18.0482H37.1258V14.1282H33.1257ZM35.1258 16.0482H31.9897V20.0482H35.1258V16.0482ZM33.9897 18.0482V9.07222H29.9897V18.0482H33.9897ZM31.9897 11.0722H35.1258V7.07222H31.9897V11.0722ZM33.1257 9.07222V10.6562H37.1258V9.07222H33.1257ZM53.53 10.0162L52.0709 11.3841L52.0766 11.3901L52.0823 11.3961L53.53 10.0162ZM54.506 18.0482V20.0482H56.506V18.0482H54.506ZM51.37 18.0482H49.37V20.0482H51.37V18.0482ZM50.97 12.1122L49.5558 13.5264V13.5264L50.97 12.1122ZM48.794 12.1122L50.2082 13.5264V13.5264L48.794 12.1122ZM48.394 18.0482V20.0482H50.394V18.0482H48.394ZM45.258 18.0482H43.258V20.0482H45.258V18.0482ZM44.858 12.1122L43.4152 13.4973L43.4294 13.512L43.4438 13.5264L44.858 12.1122ZM42.282 18.0482V20.0482H44.282V18.0482H42.282ZM39.146 18.0482H37.146V20.0482H39.146V18.0482ZM39.146 9.07222V7.07222H37.146V9.07222H39.146ZM42.282 9.07222H44.282V7.07222H42.282V9.07222ZM42.282 10.2562H40.282V16.4414L43.9034 11.4272L42.282 10.2562ZM43.354 9.34422L44.2658 11.1243L44.2739 11.1201L44.282 11.1159L43.354 9.34422ZM46.65 9.42422L45.6695 11.1674L45.6771 11.1717L45.6848 11.1759L46.65 9.42422ZM47.882 10.6402L46.1455 11.6325L47.7693 14.4742L49.5572 11.7328L47.882 10.6402ZM49.146 9.45622L50.1383 11.1927L50.1515 11.1851L50.1646 11.1774L49.146 9.45622ZM50.874 10.9922C51.5761 10.9922 51.8864 11.1872 52.0709 11.3841L54.9891 8.64834C53.8937 7.47988 52.4332 6.99222 50.874 6.99222V10.9922ZM52.0823 11.3961C52.2938 11.618 52.506 12.0086 52.506 12.8162H56.506C56.506 11.2558 56.0676 9.77977 54.9777 8.63634L52.0823 11.3961ZM52.506 12.8162V18.0482H56.506V12.8162H52.506ZM54.506 16.0482H51.37V20.0482H54.506V16.0482ZM53.37 18.0482V13.2322H49.37V18.0482H53.37ZM53.37 13.2322C53.37 12.3737 53.1212 11.435 52.3842 10.698L49.5558 13.5264C49.469 13.4397 49.4142 13.3425 49.3865 13.2649C49.3618 13.1956 49.37 13.1746 49.37 13.2322H53.37ZM52.3842 10.698C51.6641 9.97787 50.7489 9.71222 49.882 9.71222V13.7122C49.9188 13.7122 49.8846 13.7176 49.8079 13.6894C49.724 13.6586 49.6325 13.6032 49.5558 13.5264L52.3842 10.698ZM49.882 9.71222C49.0151 9.71222 48.0999 9.97787 47.3798 10.698L50.2082 13.5264C50.1315 13.6032 50.04 13.6586 49.9561 13.6894C49.8794 13.7176 49.8452 13.7122 49.882 13.7122V9.71222ZM47.3798 10.698C46.6428 11.435 46.394 12.3737 46.394 13.2322H50.394C50.394 13.1746 50.4022 13.1956 50.3775 13.2649C50.3498 13.3425 50.295 13.4397 50.2082 13.5264L47.3798 10.698ZM46.394 13.2322V18.0482H50.394V13.2322H46.394ZM48.394 16.0482H45.258V20.0482H48.394V16.0482ZM47.258 18.0482V13.2322H43.258V18.0482H47.258ZM47.258 13.2322C47.258 12.3737 47.0092 11.435 46.2722 10.698L43.4438 13.5264C43.357 13.4397 43.3022 13.3425 43.2745 13.2649C43.2498 13.1956 43.258 13.1746 43.258 13.2322H47.258ZM46.3008 10.7272C45.5807 9.97709 44.6495 9.71222 43.786 9.71222V13.7122C43.8237 13.7122 43.784 13.7178 43.6988 13.686C43.6053 13.6511 43.5019 13.5876 43.4152 13.4973L46.3008 10.7272ZM43.786 9.71222C42.9234 9.71222 41.9965 9.96927 41.2678 10.698L44.0962 13.5264C44.0144 13.6082 43.9201 13.6633 43.8393 13.6926C43.7662 13.7191 43.7387 13.7122 43.786 13.7122V9.71222ZM41.2678 10.698C40.5308 11.435 40.282 12.3737 40.282 13.2322H44.282C44.282 13.1746 44.2902 13.1956 44.2655 13.2649C44.2378 13.3425 44.183 13.4397 44.0962 13.5264L41.2678 10.698ZM40.282 13.2322V18.0482H44.282V13.2322H40.282ZM42.282 16.0482H39.146V20.0482H42.282V16.0482ZM41.146 18.0482V9.07222H37.146V18.0482H41.146ZM39.146 11.0722H42.282V7.07222H39.146V11.0722ZM40.282 9.07222V10.2562H44.282V9.07222H40.282ZM43.9034 11.4272C43.9886 11.3092 44.0989 11.2098 44.2658 11.1243L42.4422 7.56413C41.7344 7.92668 41.1301 8.43527 40.6606 9.08524L43.9034 11.4272ZM44.282 11.1159C44.4061 11.0509 44.5919 10.9922 44.89 10.9922V6.99222C44.0361 6.99222 43.1979 7.1682 42.426 7.57255L44.282 11.1159ZM44.89 10.9922C45.2518 10.9922 45.493 11.0681 45.6695 11.1674L47.6305 7.68107C46.783 7.20435 45.8508 6.99222 44.89 6.99222V10.9922ZM45.6848 11.1759C45.8825 11.2848 46.0276 11.4261 46.1455 11.6325L49.6185 9.64794C49.1391 8.80901 48.4628 8.1396 47.6152 7.67254L45.6848 11.1759ZM49.5572 11.7328C49.699 11.5154 49.8832 11.3384 50.1383 11.1927L48.1537 7.71973C47.3634 8.17132 46.705 8.78372 46.2068 9.54768L49.5572 11.7328ZM50.1646 11.1774C50.3674 11.0574 50.5895 10.9922 50.874 10.9922V6.99222C49.8998 6.99222 48.9699 7.2364 48.1274 7.73507L50.1646 11.1774ZM63.4241 12.2562L62.8888 10.3292L62.9836 14.2071L63.4241 12.2562ZM64.9921 13.2482L63.3921 14.4482L63.4062 14.4669L63.4207 14.4853L64.9921 13.2482ZM64.5921 17.2322L65.8627 18.7768V18.7768L64.5921 17.2322ZM56.2241 18.0482H54.2241V20.0482H56.2241V18.0482ZM56.2241 6.76822V4.76822H54.2241V6.76822H56.2241ZM64.3361 7.53622L63.0993 9.10796L63.1055 9.11284L63.1118 9.11767L64.3361 7.53622ZM64.8001 11.3602L63.2275 10.1246L63.2235 10.1297L64.8001 11.3602ZM59.3601 11.2482H57.3601V13.2482H59.3601V11.2482ZM59.3601 9.26422V7.26422H57.3601V9.26422H59.3601ZM62.0481 13.7442L60.7145 15.2347L60.7335 15.2516L60.7528 15.2681L62.0481 13.7442ZM59.3601 13.4722V11.4722H57.3601V13.4722H59.3601ZM59.3601 15.5202H57.3601V17.5202H59.3601V15.5202ZM62.9836 14.2071C63.2113 14.2585 63.311 14.34 63.3921 14.4482L66.5921 12.0482C65.9053 11.1324 64.9596 10.5526 63.8646 10.3053L62.9836 14.2071ZM63.4207 14.4853C63.5318 14.6266 63.5841 14.7647 63.5841 14.9762H67.5841C67.5841 13.8864 67.2418 12.8725 66.5636 12.0111L63.4207 14.4853ZM63.5841 14.9762C63.5841 15.4199 63.4614 15.5726 63.3216 15.6876L65.8627 18.7768C67.0455 17.8038 67.5841 16.4525 67.5841 14.9762H63.5841ZM63.3216 15.6876C63.1367 15.8397 62.7203 16.0482 61.8081 16.0482V20.0482C63.2853 20.0482 64.7249 19.7127 65.8627 18.7768L63.3216 15.6876ZM61.8081 16.0482H56.2241V20.0482H61.8081V16.0482ZM58.2241 18.0482V6.76822H54.2241V18.0482H58.2241ZM56.2241 8.76822H61.6321V4.76822H56.2241V8.76822ZM61.6321 8.76822C62.5082 8.76822 62.9165 8.96405 63.0993 9.10796L65.5729 5.96448C64.4545 5.08439 63.06 4.76822 61.6321 4.76822V8.76822ZM63.1118 9.11767C63.2256 9.20578 63.3281 9.30937 63.3281 9.69622H67.3281C67.3281 8.22706 66.7693 6.89065 65.5605 5.95477L63.1118 9.11767ZM63.3281 9.69622C63.3281 9.9847 63.2594 10.0839 63.2275 10.1246L66.3728 12.5959C67.0448 11.7405 67.3281 10.7304 67.3281 9.69622H63.3281ZM63.2235 10.1297C63.1666 10.2026 63.086 10.2744 62.8888 10.3292L63.9594 14.1833C64.9142 13.918 65.751 13.3925 66.3768 12.5908L63.2235 10.1297ZM59.3601 13.2482H60.9441V9.24822H59.3601V13.2482ZM60.9441 13.2482C61.5632 13.2482 62.3994 13.1285 63.1043 12.5475C63.8831 11.9054 64.1281 11.0186 64.1281 10.2722H60.1281C60.1281 10.2366 60.1332 10.1147 60.2 9.94945C60.2717 9.77198 60.3939 9.59786 60.56 9.46096C60.8702 9.20525 61.1143 9.24822 60.9441 9.24822V13.2482ZM64.1281 10.2722C64.1281 9.53619 63.8969 8.64741 63.1286 7.99335C62.422 7.39177 61.5754 7.26422 60.9441 7.26422V11.2642C61.1021 11.2642 60.8476 11.3047 60.5356 11.0391C60.3719 10.8996 60.2572 10.7275 60.1918 10.5604C60.1311 10.4054 60.1281 10.2956 60.1281 10.2722H64.1281ZM60.9441 7.26422H59.3601V11.2642H60.9441V7.26422ZM57.3601 9.26422V11.2482H61.3601V9.26422H57.3601ZM61.1841 17.5202C61.8093 17.5202 62.6507 17.3966 63.3566 16.8053C64.1302 16.1571 64.3681 15.2692 64.3681 14.5282H60.3681C60.3681 14.4988 60.3721 14.383 60.4358 14.2229C60.5043 14.0506 60.6227 13.8774 60.7877 13.7392C61.0989 13.4785 61.3483 13.5202 61.1841 13.5202V17.5202ZM64.3681 14.5282C64.3681 13.7408 64.1009 12.8642 63.3434 12.2203L60.7528 15.2681C60.6131 15.1493 60.5033 14.9958 60.4364 14.832C60.3736 14.6782 60.3681 14.5638 60.3681 14.5282H64.3681ZM63.3817 12.2537C62.6856 11.6309 61.8424 11.4722 61.1681 11.4722V15.4722C61.2618 15.4722 61.0053 15.4949 60.7145 15.2347L63.3817 12.2537ZM61.1681 11.4722H59.3601V15.4722H61.1681V11.4722ZM57.3601 13.4722V15.5202H61.3601V13.4722H57.3601ZM59.3601 17.5202H61.1841V13.5202H59.3601V17.5202ZM68.7185 17.6002L67.7815 19.3672L67.7925 19.3729L68.7185 17.6002ZM67.0545 16.0002L68.7811 14.9908H68.7811L67.0545 16.0002ZM67.0545 11.1202L65.3395 10.0912L65.3337 10.101L65.3279 10.1108L67.0545 11.1202ZM68.7345 9.52022L67.8084 7.74748L67.7975 7.75329L68.7345 9.52022ZM73.5505 9.52022L72.6135 11.2872L72.6245 11.2929L73.5505 9.52022ZM75.2305 11.1202L73.5039 12.1296L73.5097 12.1394L73.5155 12.1492L75.2305 11.1202ZM75.2305 16.0002L73.5086 14.9827L73.5039 14.9908L75.2305 16.0002ZM73.5505 17.6002L72.6245 15.8275L73.5505 17.6002ZM72.2225 14.9602L70.7383 13.6196L70.7359 13.6223L72.2225 14.9602ZM72.2225 12.1602L70.7359 13.4981L70.748 13.5116L70.7604 13.5249L72.2225 12.1602ZM70.0625 14.9602L68.5511 16.2701L70.0625 14.9602ZM71.1345 16.1602C70.5245 16.1602 70.0427 16.0355 69.6445 15.8275L67.7925 19.3729C68.8236 19.9116 69.9525 20.1602 71.1345 20.1602V16.1602ZM69.6555 15.8333C69.2827 15.6356 69.0003 15.3658 68.7811 14.9908L65.3279 17.0096C65.9193 18.0213 66.7463 18.8182 67.7815 19.3671L69.6555 15.8333ZM68.7811 14.9908C68.583 14.6521 68.4465 14.1966 68.4465 13.5522H64.4465C64.4465 14.7852 64.7153 15.9617 65.3279 17.0096L68.7811 14.9908ZM68.4465 13.5522C68.4465 12.9231 68.5811 12.4718 68.7811 12.1296L65.3279 10.1108C64.7173 11.1553 64.4465 12.3254 64.4465 13.5522H68.4465ZM68.7695 12.1492C69.0011 11.7633 69.2941 11.4873 69.6715 11.2871L67.7975 7.75329C66.7669 8.29982 65.9399 9.09051 65.3395 10.0912L68.7695 12.1492ZM69.6605 11.2929C70.0587 11.0849 70.5405 10.9602 71.1505 10.9602V6.96022C69.9685 6.96022 68.8396 7.20886 67.8085 7.74752L69.6605 11.2929ZM71.1505 10.9602C71.761 10.9602 72.2324 11.0851 72.6135 11.2871L74.4875 7.75329C73.4606 7.20871 72.332 6.96022 71.1505 6.96022V10.9602ZM72.6245 11.2929C73.0072 11.4929 73.2892 11.7623 73.5039 12.1296L76.9571 10.1108C76.3612 9.09149 75.5231 8.29424 74.4765 7.74752L72.6245 11.2929ZM73.5155 12.1492C73.7188 12.4881 73.8545 12.9322 73.8545 13.5522H77.8545C77.8545 12.3162 77.5742 11.139 76.9455 10.0912L73.5155 12.1492ZM73.8545 13.5522C73.8545 14.1715 73.719 14.6267 73.5086 14.9828L76.9524 17.0177C77.574 15.9657 77.8545 14.7889 77.8545 13.5522H73.8545ZM73.5039 14.9908C73.2892 15.3582 73.0072 15.6276 72.6245 15.8275L74.4765 19.3729C75.5231 18.8262 76.3612 18.0289 76.9571 17.0096L73.5039 14.9908ZM72.6245 15.8275C72.2263 16.0355 71.7445 16.1602 71.1345 16.1602V20.1602C72.3165 20.1602 73.4454 19.9116 74.4765 19.3729L72.6245 15.8275ZM71.1345 17.4402C72.1286 17.4402 73.035 17.0471 73.7091 16.2981L70.7359 13.6223C70.7646 13.5905 70.8283 13.534 70.9272 13.4904C71.0254 13.4471 71.1041 13.4402 71.1345 13.4402V17.4402ZM73.7067 16.3008C74.442 15.4867 74.6705 14.4733 74.6705 13.5522H70.6705C70.6705 13.6967 70.6523 13.7549 70.6526 13.7538C70.6533 13.7519 70.6588 13.7352 70.6735 13.709C70.6884 13.6823 70.7099 13.6511 70.7383 13.6196L73.7067 16.3008ZM74.6705 13.5522C74.6705 12.6362 74.444 11.6092 73.6846 10.7956L70.7604 13.5249C70.7262 13.4883 70.7003 13.4516 70.682 13.4195C70.664 13.388 70.6565 13.3665 70.6547 13.3609C70.653 13.3559 70.6572 13.3671 70.6616 13.3992C70.6661 13.4314 70.6705 13.4814 70.6705 13.5522H74.6705ZM73.7091 10.8223C73.0457 10.0852 72.15 9.68022 71.1505 9.68022V13.6802C71.1077 13.6802 71.022 13.6707 70.9212 13.6256C70.8208 13.5807 70.7598 13.5247 70.7359 13.4981L73.7091 10.8223ZM71.1505 9.68022C70.151 9.68022 69.2553 10.0852 68.5919 10.8223L71.5651 13.4981C71.5412 13.5247 71.4802 13.5807 71.3798 13.6256C71.279 13.6707 71.1933 13.6802 71.1505 13.6802V9.68022ZM68.5919 10.8223C67.859 11.6366 67.6465 12.653 67.6465 13.5522H71.6465C71.6465 13.4785 71.6509 13.4252 71.6557 13.3895C71.6605 13.3539 71.6652 13.3392 71.6646 13.341C71.6639 13.3433 71.6577 13.3624 71.6412 13.3924C71.6243 13.4231 71.5994 13.46 71.5651 13.4981L68.5919 10.8223ZM67.6465 13.5522C67.6465 14.4351 67.8409 15.4506 68.5511 16.2701L71.5739 13.6504C71.6099 13.6919 71.6343 13.7304 71.6498 13.7597C71.6649 13.7884 71.6694 13.8044 71.6685 13.8015C71.6676 13.7983 71.6618 13.7776 71.6564 13.7354C71.6511 13.693 71.6465 13.6329 71.6465 13.5522H67.6465ZM68.5511 16.2701C69.2224 17.0446 70.1389 17.4402 71.1345 17.4402V13.4402C71.1644 13.4402 71.2488 13.4469 71.3558 13.4948C71.4645 13.5435 71.5374 13.6082 71.5739 13.6504L68.5511 16.2701ZM78.8904 17.6002L77.9534 19.3672L77.9643 19.3729L78.8904 17.6002ZM77.2264 16.0002L78.953 14.9908H78.953L77.2264 16.0002ZM77.2264 11.1202L75.5114 10.0912L75.5055 10.101L75.4998 10.1108L77.2264 11.1202ZM78.9064 9.52022L77.9803 7.74748L77.9694 7.75329L78.9064 9.52022ZM83.7224 9.52022L82.7854 11.2872L82.7963 11.2929L83.7224 9.52022ZM85.4024 11.1202L83.6758 12.1296L83.6815 12.1394L83.6874 12.1492L85.4024 11.1202ZM85.4024 16.0002L83.6805 14.9827L83.6758 14.9908L85.4024 16.0002ZM83.7224 17.6002L82.7963 15.8275L83.7224 17.6002ZM82.3944 14.9602L80.9102 13.6196L80.9078 13.6223L82.3944 14.9602ZM82.3944 12.1602L80.9078 13.4981L80.9199 13.5116L80.9323 13.5249L82.3944 12.1602ZM80.2344 14.9602L78.723 16.2701L80.2344 14.9602ZM81.3064 16.1602C80.6964 16.1602 80.2146 16.0355 79.8164 15.8275L77.9643 19.3729C78.9955 19.9116 80.1243 20.1602 81.3064 20.1602V16.1602ZM79.8274 15.8333C79.4546 15.6356 79.1722 15.3658 78.953 14.9908L75.4998 17.0096C76.0912 18.0213 76.9182 18.8182 77.9534 19.3671L79.8274 15.8333ZM78.953 14.9908C78.7549 14.6521 78.6184 14.1966 78.6184 13.5522H74.6184C74.6184 14.7852 74.8872 15.9617 75.4998 17.0096L78.953 14.9908ZM78.6184 13.5522C78.6184 12.9231 78.7529 12.4718 78.953 12.1296L75.4998 10.1108C74.8891 11.1553 74.6184 12.3254 74.6184 13.5522H78.6184ZM78.9414 12.1492C79.1729 11.7633 79.466 11.4873 79.8434 11.2871L77.9694 7.75329C76.9388 8.29982 76.1118 9.09051 75.5114 10.0912L78.9414 12.1492ZM79.8324 11.2929C80.2306 11.0849 80.7124 10.9602 81.3224 10.9602V6.96022C80.1403 6.96022 79.0115 7.20886 77.9803 7.74752L79.8324 11.2929ZM81.3224 10.9602C81.9329 10.9602 82.4043 11.0851 82.7854 11.2871L84.6594 7.75329C83.6324 7.20871 82.5039 6.96022 81.3224 6.96022V10.9602ZM82.7963 11.2929C83.1791 11.4929 83.461 11.7623 83.6758 12.1296L87.129 10.1108C86.5331 9.09149 85.695 8.29424 84.6484 7.74752L82.7963 11.2929ZM83.6874 12.1492C83.8907 12.4881 84.0264 12.9322 84.0264 13.5522H88.0264C88.0264 12.3162 87.746 11.139 87.1174 10.0912L83.6874 12.1492ZM84.0264 13.5522C84.0264 14.1715 83.8909 14.6267 83.6805 14.9828L87.1242 17.0177C87.7458 15.9657 88.0264 14.7889 88.0264 13.5522H84.0264ZM83.6758 14.9908C83.461 15.3582 83.1791 15.6276 82.7963 15.8275L84.6484 19.3729C85.695 18.8262 86.5331 18.0289 87.129 17.0096L83.6758 14.9908ZM82.7963 15.8275C82.3982 16.0355 81.9163 16.1602 81.3064 16.1602V20.1602C82.4884 20.1602 83.6173 19.9116 84.6484 19.3729L82.7963 15.8275ZM81.3064 17.4402C82.3004 17.4402 83.2069 17.0471 83.881 16.2981L80.9078 13.6223C80.9364 13.5905 81.0001 13.534 81.0991 13.4904C81.1973 13.4471 81.2759 13.4402 81.3064 13.4402V17.4402ZM83.8786 16.3008C84.6139 15.4867 84.8424 14.4733 84.8424 13.5522H80.8424C80.8424 13.6967 80.8242 13.7549 80.8245 13.7538C80.8251 13.7519 80.8307 13.7352 80.8454 13.709C80.8603 13.6823 80.8817 13.6511 80.9102 13.6196L83.8786 16.3008ZM84.8424 13.5522C84.8424 12.6362 84.6159 11.6092 83.8565 10.7956L80.9323 13.5249C80.8981 13.4883 80.8722 13.4516 80.8539 13.4195C80.8359 13.388 80.8283 13.3665 80.8265 13.3609C80.8249 13.3559 80.829 13.3671 80.8335 13.3992C80.838 13.4314 80.8424 13.4814 80.8424 13.5522H84.8424ZM83.881 10.8223C83.2176 10.0852 82.3218 9.68022 81.3224 9.68022V13.6802C81.2796 13.6802 81.1938 13.6707 81.093 13.6256C80.9927 13.5807 80.9317 13.5247 80.9078 13.4981L83.881 10.8223ZM81.3224 9.68022C80.3229 9.68022 79.4272 10.0852 78.7638 10.8223L81.737 13.4981C81.7131 13.5247 81.6521 13.5807 81.5517 13.6256C81.4509 13.6707 81.3652 13.6802 81.3224 13.6802V9.68022ZM78.7638 10.8223C78.0309 11.6366 77.8184 12.653 77.8184 13.5522H81.8184C81.8184 13.4785 81.8228 13.4252 81.8276 13.3895C81.8324 13.3539 81.8371 13.3392 81.8365 13.341C81.8358 13.3433 81.8296 13.3624 81.813 13.3924C81.7962 13.4231 81.7713 13.46 81.737 13.4981L78.7638 10.8223ZM77.8184 13.5522C77.8184 14.4351 78.0127 15.4506 78.723 16.2701L81.7458 13.6504C81.7817 13.6919 81.8062 13.7304 81.8217 13.7597C81.8368 13.7884 81.8413 13.8044 81.8404 13.8015C81.8394 13.7983 81.8337 13.7776 81.8283 13.7354C81.8229 13.693 81.8184 13.6329 81.8184 13.5522H77.8184ZM78.723 16.2701C79.3942 17.0446 80.3108 17.4402 81.3064 17.4402V13.4402C81.3363 13.4402 81.4207 13.4469 81.5277 13.4948C81.6364 13.5435 81.7092 13.6082 81.7458 13.6504L78.723 16.2701ZM92.9183 18.0482L91.2597 19.1659L91.8543 20.0482H92.9183V18.0482ZM90.4382 14.3682L92.0968 13.2505L88.4382 7.82172V14.3682H90.4382ZM90.4382 18.0482V20.0482H92.4382V18.0482H90.4382ZM87.3023 18.0482H85.3023V20.0482H87.3023V18.0482ZM87.3023 6.20822V4.20822H85.3023V6.20822H87.3023ZM90.4382 6.20822H92.4382V4.20822H90.4382V6.20822ZM90.4382 12.5922H88.4382V18.9034L92.0732 13.7441L90.4382 12.5922ZM92.9183 9.07222V7.07222H91.8808L91.2833 7.92031L92.9183 9.07222ZM96.6783 9.07222L98.2524 10.3059L100.787 7.07222H96.6783V9.07222ZM93.1423 13.5842L91.5681 12.3505L90.5873 13.602L91.5854 14.8397L93.1423 13.5842ZM96.7422 18.0482V20.0482H100.924L98.2991 16.7927L96.7422 18.0482ZM94.5768 16.9305L92.0968 13.2505L88.7797 15.4859L91.2597 19.1659L94.5768 16.9305ZM88.4382 14.3682V18.0482H92.4382V14.3682H88.4382ZM90.4382 16.0482H87.3023V20.0482H90.4382V16.0482ZM89.3023 18.0482V6.20822H85.3023V18.0482H89.3023ZM87.3023 8.20822H90.4382V4.20822H87.3023V8.20822ZM88.4382 6.20822V12.5922H92.4382V6.20822H88.4382ZM92.0732 13.7441L94.5532 10.2241L91.2833 7.92031L88.8033 11.4403L92.0732 13.7441ZM92.9183 11.0722H96.6783V7.07222H92.9183V11.0722ZM95.1041 7.83855L91.5681 12.3505L94.7164 14.8179L98.2524 10.3059L95.1041 7.83855ZM91.5854 14.8397L95.1854 19.3037L98.2991 16.7927L94.6991 12.3287L91.5854 14.8397ZM96.7422 16.0482H92.9183V20.0482H96.7422V16.0482ZM99.3096 17.7602L98.5031 19.5904L98.5217 19.5986L98.5404 19.6064L99.3096 17.7602ZM97.8056 16.6402L96.2099 17.8459L96.2249 17.8658L96.2404 17.8853L97.8056 16.6402ZM97.1976 15.0242V13.0242H95.0497L95.2027 15.1667L97.1976 15.0242ZM100.238 15.0242L102.216 14.7311L101.963 13.0242H100.238V15.0242ZM101.934 14.8642L102.731 13.0301V13.0301L101.934 14.8642ZM100.718 14.5122L101.159 12.5616L101.135 12.556L101.11 12.5511L100.718 14.5122ZM99.1176 14.0802L98.4154 15.9529L99.1176 14.0802ZM97.9976 13.2962L96.476 14.5941L96.4868 14.6069L96.4979 14.6195L97.9976 13.2962ZM97.9656 10.3842L99.6233 11.5032L99.6297 11.4937L99.636 11.4842L97.9656 10.3842ZM99.2296 9.34422L98.4046 7.52231L98.398 7.52528L98.3915 7.5283L99.2296 9.34422ZM104.03 9.82422L102.728 11.3427V11.3427L104.03 9.82422ZM105.198 12.0962V14.0962H107.438L107.185 11.8704L105.198 12.0962ZM102.366 12.0962L100.399 12.4604L100.702 14.0962H102.366V12.0962ZM101.982 11.4402L100.701 12.9767L100.747 13.0149L100.795 13.0503L101.982 11.4402ZM100.606 11.3442L99.4672 9.69983L99.436 9.72144L99.4056 9.74422L100.606 11.3442ZM100.782 12.2402L99.9187 14.0445L99.9512 14.06L99.9842 14.0744L100.782 12.2402ZM101.966 12.5762L101.544 14.5313L101.549 14.5323L101.966 12.5762ZM103.582 13.0402L102.839 14.8972L102.847 14.9003L102.855 14.9034L103.582 13.0402ZM104.718 13.8722L103.181 15.1526L103.2 15.1757L103.22 15.1983L104.718 13.8722ZM104.75 16.8162L103.145 15.6228L103.135 15.6362L103.125 15.6498L104.75 16.8162ZM103.454 17.8082L104.233 19.6502L104.241 19.6466L104.25 19.6429L103.454 17.8082ZM101.486 16.1602C100.895 16.1602 100.437 16.0635 100.079 15.9141L98.5404 19.6064C99.4618 19.9903 100.455 20.1602 101.486 20.1602V16.1602ZM100.116 15.93C99.7395 15.7641 99.5146 15.5759 99.3708 15.3952L96.2404 17.8853C96.8434 18.6432 97.621 19.2017 98.5031 19.5904L100.116 15.93ZM99.4014 15.4346C99.2705 15.2614 99.2075 15.0917 99.1925 14.8817L95.2027 15.1667C95.273 16.1514 95.6154 17.059 96.2099 17.8459L99.4014 15.4346ZM97.1976 17.0242H100.238V13.0242H97.1976V17.0242ZM98.2592 15.3173C98.3763 16.1078 98.7817 16.8283 99.4752 17.3237L101.8 14.0688C101.9 14.1404 102.005 14.2463 102.088 14.3853C102.17 14.522 102.204 14.6473 102.216 14.7311L98.2592 15.3173ZM99.4752 17.3237C100.102 17.7715 100.808 17.9362 101.47 17.9362V13.9362C101.465 13.9362 101.502 13.9357 101.568 13.9546C101.637 13.9744 101.719 14.0106 101.8 14.0688L99.4752 17.3237ZM101.47 17.9362C101.983 17.9362 102.641 17.8315 103.24 17.4037L100.915 14.1488C101.215 13.9343 101.469 13.9362 101.47 13.9362V17.9362ZM103.24 17.4037C103.869 16.9547 104.302 16.2318 104.302 15.3602H100.302C100.302 15.143 100.352 14.8901 100.485 14.644C100.614 14.4031 100.782 14.2438 100.915 14.1488L103.24 17.4037ZM104.302 15.3602C104.302 14.859 104.156 14.3346 103.816 13.8765C103.492 13.4405 103.081 13.1823 102.731 13.0301L101.136 16.6984C101.031 16.6528 100.804 16.5306 100.603 16.2599C100.386 15.9671 100.302 15.6374 100.302 15.3602H104.302ZM102.731 13.0301C102.302 12.8434 101.74 12.693 101.159 12.5616L100.276 16.4628C100.533 16.5211 100.736 16.5728 100.89 16.6173C100.966 16.6394 101.025 16.6582 101.069 16.6733C101.09 16.6807 101.107 16.6868 101.119 16.6913C101.124 16.6935 101.129 16.6953 101.132 16.6965C101.135 16.6978 101.136 16.6984 101.136 16.6984L102.731 13.0301ZM101.11 12.5511C100.534 12.436 100.113 12.3175 99.8199 12.2076L98.4154 15.9529C98.9756 16.163 99.6209 16.3325 100.325 16.4734L101.11 12.5511ZM99.8199 12.2076C99.7188 12.1697 99.6142 12.1055 99.4973 11.973L96.4979 14.6195C97.021 15.2123 97.6631 15.6708 98.4154 15.9529L99.8199 12.2076ZM99.5193 11.9983C99.5338 12.0153 99.5446 12.0318 99.5517 12.0448C99.5586 12.0575 99.5594 12.0622 99.5571 12.0549C99.552 12.0389 99.5336 11.9695 99.5336 11.8242H95.5336C95.5336 12.7742 95.7756 13.773 96.476 14.5941L99.5193 11.9983ZM99.5336 11.8242C99.5336 11.6744 99.5668 11.5869 99.6233 11.5032L96.3079 9.26527C95.7885 10.0349 95.5336 10.9074 95.5336 11.8242H99.5336ZM99.636 11.4842C99.6866 11.4073 99.7945 11.2863 100.068 11.1601L98.3915 7.5283C97.5555 7.91417 96.8207 8.48643 96.2953 9.28424L99.636 11.4842ZM100.055 11.1661C100.3 11.0548 100.682 10.9602 101.262 10.9602V6.96022C100.262 6.96022 99.2895 7.12161 98.4046 7.52231L100.055 11.1661ZM101.262 10.9602C102.115 10.9602 102.522 11.1665 102.728 11.3427L105.331 8.30571C104.193 7.32997 102.755 6.96022 101.262 6.96022V10.9602ZM102.728 11.3427C102.989 11.5664 103.157 11.8483 103.21 12.322L107.185 11.8704C107.025 10.4668 106.414 9.23402 105.331 8.3057L102.728 11.3427ZM105.198 10.0962H102.366V14.0962H105.198V10.0962ZM104.332 11.732C104.203 11.0321 103.846 10.3295 103.168 9.8301L100.795 13.0503C100.676 12.9627 100.576 12.8502 100.504 12.7266C100.434 12.6076 100.408 12.5092 100.399 12.4604L104.332 11.732ZM103.262 9.90378C102.609 9.3593 101.844 9.20022 101.198 9.20022V13.2002C101.213 13.2002 100.971 13.2011 100.701 12.9767L103.262 9.90378ZM101.198 9.20022C100.732 9.20022 100.072 9.28078 99.4672 9.69983L101.744 12.9886C101.575 13.1055 101.423 13.1571 101.33 13.1796C101.24 13.2015 101.19 13.2002 101.198 13.2002V9.20022ZM99.4056 9.74422C98.7362 10.2463 98.4136 10.9929 98.4136 11.7442H102.414C102.414 11.9124 102.381 12.1396 102.265 12.3817C102.146 12.6281 101.977 12.8155 101.806 12.9442L99.4056 9.74422ZM98.4136 11.7442C98.4136 12.9526 99.2074 13.7043 99.9187 14.0445L101.645 10.4359C101.725 10.4744 101.927 10.5871 102.112 10.8365C102.316 11.1117 102.414 11.4384 102.414 11.7442H98.4136ZM99.9842 14.0744C100.421 14.2642 100.978 14.4092 101.544 14.5313L102.387 10.6212C102.143 10.5686 101.952 10.5213 101.808 10.4802C101.736 10.4598 101.681 10.4425 101.64 10.4286C101.62 10.4218 101.605 10.4163 101.594 10.4122C101.584 10.4081 101.579 10.406 101.579 10.4061L99.9842 14.0744ZM101.549 14.5323C102.133 14.6568 102.553 14.7829 102.839 14.8972L104.324 11.1833C103.757 10.9562 103.1 10.773 102.382 10.6201L101.549 14.5323ZM102.855 14.9034C102.957 14.9433 103.063 15.0107 103.181 15.1526L106.254 12.5918C105.732 11.9657 105.081 11.4785 104.309 11.1771L102.855 14.9034ZM103.22 15.1983C103.189 15.1625 103.182 15.1365 103.186 15.1508C103.193 15.1717 103.214 15.2494 103.214 15.4082H107.214C107.214 14.4212 106.958 13.3851 106.215 12.5461L103.22 15.1983ZM103.214 15.4082C103.214 15.5048 103.195 15.5549 103.145 15.6228L106.355 18.0096C106.923 17.2456 107.214 16.357 107.214 15.4082H103.214ZM103.125 15.6498C103.076 15.7177 102.959 15.8427 102.657 15.9735L104.25 19.6429C105.079 19.2831 105.826 18.7467 106.374 17.9826L103.125 15.6498ZM102.674 15.9663C102.421 16.0735 102.042 16.1602 101.486 16.1602V20.1602C102.444 20.1602 103.377 20.0123 104.233 19.6502L102.674 15.9663Z" fill="white" mask="url(#path-1-outside-1_186_1833)"/>
<path d="M24.167 29.0482V65.5476L36.389 70.1415V66.5162C32.951 66.0321 29.5042 65.2171 26.836 62.4769L28.8985 60.5302C30.7547 62.4362 33.3339 63.1278 36.2745 63.5959L32.2736 30.8584C29.622 30.3611 26.9014 29.8156 24.167 29.0482ZM84.8379 29.0527C74.8803 31.6698 63.7008 29.0681 55.6242 39.7084V71.1291C58.6484 66.7428 62.5668 64.9799 66.4285 64.1276C71.6097 62.9835 76.5391 63.0497 80.4074 59.9706L82.2025 62.157C77.4273 65.9584 71.7756 65.8264 67.0536 66.8689C62.5781 67.8569 58.8071 69.5217 56.0156 76.3769L84.8377 65.5477L84.8379 29.0527ZM35.0471 29.9932L39.2342 64.3248L39.2433 64.4096V97.0482L42.2897 91.1376L45.4167 96.8789V67.2406L41.1203 31.2301L35.0471 29.9932ZM44.2854 33.6422L48.1954 66.4127C48.8489 66.7659 49.4717 67.1717 50.0574 67.6259C51.0431 68.3929 51.9536 69.3353 52.7691 70.4804V39.0547C50.4017 36.4252 47.5135 34.7923 44.2854 33.6422ZM18.5 33.7695V69.855L36.3892 76.3299V73.3346L21.3551 67.8941V33.7695H18.5ZM87.6451 33.774V67.8939L54.5024 79.8852L48.2722 77.6326V83.3927C51.8181 84.601 57.1451 84.4179 61.4491 83.012V80.3693L90.5 69.8549V33.7741L87.6451 33.774ZM48.2719 69.8173V74.6043L52.483 76.1888C51.4075 73.0519 49.9523 71.1238 48.2911 69.8313C48.285 69.8268 48.2782 69.8221 48.2719 69.8173Z" fill="#810EA7"/>
<path d="M75.5037 47.4085C75.245 47.0685 74.93 46.7738 74.6376 46.4791C73.884 45.7991 73.0291 45.3118 72.3093 44.5977C70.6333 42.943 70.2621 40.2116 71.3307 38.1149C70.2621 38.3756 69.3286 38.9649 68.53 39.6109C65.6167 41.9683 64.4695 46.1278 65.8417 49.6979C65.8867 49.8112 65.9317 49.9246 65.9317 50.0719C65.9317 50.3212 65.763 50.5479 65.538 50.6386C65.2793 50.7519 65.0094 50.6839 64.7956 50.5026C64.7314 50.4491 64.678 50.3837 64.6382 50.3099C63.3672 48.6892 63.1647 46.3658 64.0195 44.5071C62.1411 46.0484 61.1176 48.6552 61.2638 51.1146C61.3313 51.6813 61.3988 52.248 61.59 52.8146C61.7475 53.4947 62.0511 54.1747 62.3886 54.7754C63.6034 56.7361 65.7067 58.1415 67.9676 58.4248C70.3746 58.7308 72.9504 58.2888 74.7951 56.6114C76.8534 54.73 77.5733 51.7153 76.516 49.1312L76.3698 48.8365C76.1336 48.3152 75.5037 47.4085 75.5037 47.4085ZM71.9493 54.5487C71.6344 54.8207 71.117 55.1154 70.7121 55.2287C69.4523 55.6821 68.1925 55.0474 67.4502 54.2993C68.7887 53.982 69.5873 52.9846 69.8235 51.9759C70.0147 51.0693 69.6548 50.3212 69.5085 49.4485C69.3736 48.6098 69.3961 47.8958 69.6997 47.1138C69.9135 47.5445 70.1384 47.9752 70.4084 48.3152C71.2745 49.4485 72.6355 49.9472 72.9279 51.4886C72.9729 51.6473 72.9954 51.8059 72.9954 51.9759C73.0291 52.9053 72.6242 53.9253 71.9493 54.5487Z" fill="white"/>
<path d="M91.5 32.7738V70.556L90.8398 70.7953L62.4492 81.0707V83.7377L61.7598 83.9623C57.3018 85.4185 51.7464 85.6332 47.9492 84.3392L47.2725 84.1088V76.2074L48.6123 76.6918L54.502 78.8207L86.6455 67.1918V32.7738H91.5ZM85.8379 66.2406L85.1895 66.4838L56.3672 77.3129L54.2275 78.1166L55.0898 75.9994C56.5356 72.4491 58.2721 70.155 60.3008 68.6244C62.3216 67.0998 64.5482 66.3974 66.8379 65.892C68.0565 65.6229 69.3295 65.431 70.5898 65.2386C71.8619 65.0445 73.1301 64.8489 74.3936 64.5707C76.6058 64.0835 78.7614 63.3506 80.7617 61.9779L80.2344 61.3363C78.3351 62.6218 76.2529 63.2913 74.1221 63.7523C72.9095 64.0147 71.6579 64.2138 70.4141 64.4154C69.1613 64.6184 67.9083 64.8249 66.6445 65.1039H66.6436C62.9463 65.9199 59.286 67.5793 56.4473 71.6967L54.624 74.3412V39.3715L54.8281 39.1039C59.0574 33.5322 64.1226 31.4293 69.3301 30.391C71.907 29.8772 74.5442 29.6192 77.0957 29.3314C79.6684 29.0413 82.1712 28.7195 84.584 28.0853L85.8379 27.7562V66.2406ZM48.8662 69.0131H48.8652C48.8661 69.0137 48.8678 69.0141 48.8691 69.015L48.8857 69.0267L48.9053 69.0424C50.7427 70.4722 52.3003 72.5734 53.4287 75.8646L54.1172 77.8724L52.1309 77.1244L47.9199 75.5404L47.2715 75.2963V67.7875L48.8662 69.0131ZM37.3896 77.7552L36.0488 77.2699L18.1592 70.7953L17.5 70.557V32.7699H22.3555V67.1918L36.7295 72.3939L37.3896 72.6332V77.7552ZM46.417 96.8793L44.5381 97.3568L42.3135 93.2728L40.1318 97.5062L38.2432 97.0482V64.4603L38.2412 64.4457L34.0547 30.1146L33.8867 28.7367L35.2471 29.0131L41.3203 30.2504L42.0273 30.3939L42.1133 31.1117L46.4092 67.1224L46.417 67.181V96.8793ZM37.3887 71.5853L36.0371 71.0775L23.8154 66.4838L23.167 66.2396V27.7289L24.4375 28.0853C26.4549 28.6515 28.4693 29.0962 30.4668 29.4926L32.458 29.8754L33.1777 30.0101L33.2666 30.7367L37.2666 63.475L37.4277 64.7924L36.1172 64.5834C33.4836 64.1641 30.9217 63.5427 28.9092 61.8939L28.2979 62.472C30.6055 64.4181 33.4669 65.0947 36.5283 65.5258L37.3887 65.6469V71.5853ZM53.7695 73.6088L51.9551 71.0609C51.1944 69.9928 50.3505 69.1216 49.4443 68.4164L49.0312 68.1088C48.6119 67.8103 48.1737 67.5377 47.7197 67.2924L47.2637 67.0463L47.2021 66.5316L43.292 33.7611L43.1016 32.1586L44.6211 32.7006C47.9566 33.8889 51.004 35.5996 53.5127 38.3861L53.7695 38.6713V73.6088Z" stroke="white" stroke-width="2"/>
</svg>
